<svg id="visual" viewBox="0 0 900 600" width="900" height="600" xmlns="http://www.w3.org/2000/svg" xmlns:xlink="http://www.w3.org/1999/xlink" version="1.1"><path d="M0 401L21.5 404.7C43 408.3 86 415.7 128.8 421.5C171.7 427.3 214.3 431.7 257.2 428.7C300 425.7 343 415.3 385.8 416.5C428.7 417.7 471.3 430.3 514.2 434.3C557 438.3 600 433.7 642.8 427.2C685.7 420.7 728.3 412.3 771.2 402.8C814 393.3 857 382.7 878.5 377.3L900 372L900 601L878.5 601C857 601 814 601 771.2 601C728.3 601 685.7 601 642.8 601C600 601 557 601 514.2 601C471.3 601 428.7 601 385.8 601C343 601 300 601 257.2 601C214.3 601 171.7 601 128.8 601C86 601 43 601 21.5 601L0 601Z" fill="#c62368"></path><path d="M0 409L21.5 407.3C43 405.7 86 402.3 128.8 402.5C171.7 402.7 214.3 406.3 257.2 409C300 411.7 343 413.3 385.8 413.7C428.7 414 471.3 413 514.2 412.7C557 412.3 600 412.7 642.8 418C685.7 423.3 728.3 433.7 771.2 443.2C814 452.7 857 461.3 878.5 465.7L900 470L900 601L878.5 601C857 601 814 601 771.2 601C728.3 601 685.7 601 642.8 601C600 601 557 601 514.2 601C471.3 601 428.7 601 385.8 601C343 601 300 601 257.2 601C214.3 601 171.7 601 128.8 601C86 601 43 601 21.5 601L0 601Z" fill="#dc2b59"></path><path d="M0 445L21.5 450C43 455 86 465 128.8 468.7C171.7 472.3 214.3 469.7 257.2 474.5C300 479.3 343 491.7 385.8 486.7C428.7 481.7 471.3 459.3 514.2 456.2C557 453 600 469 642.8 475.2C685.7 481.3 728.3 477.7 771.2 479.7C814 481.7 857 489.3 878.5 493.2L900 497L900 601L878.5 601C857 601 814 601 771.2 601C728.3 601 685.7 601 642.8 601C600 601 557 601 514.2 601C471.3 601 428.7 601 385.8 601C343 601 300 601 257.2 601C214.3 601 171.7 601 128.8 601C86 601 43 601 21.5 601L0 601Z" fill="#ec3c46"></path><path d="M0 507L21.5 505C43 503 86 499 128.8 495.8C171.7 492.7 214.3 490.3 257.2 489.5C300 488.7 343 489.3 385.8 491.2C428.7 493 471.3 496 514.2 495.5C557 495 600 491 642.8 494C685.7 497 728.3 507 771.2 510.7C814 514.3 857 511.7 878.5 510.3L900 509L900 601L878.5 601C857 601 814 601 771.2 601C728.3 601 685.7 601 642.8 601C600 601 557 601 514.2 601C471.3 601 428.7 601 385.8 601C343 601 300 601 257.2 601C214.3 601 171.7 601 128.8 601C86 601 43 601 21.5 601L0 601Z" fill="#f6532e"></path><path d="M0 537L21.5 539.3C43 541.7 86 546.3 128.8 549.3C171.7 552.3 214.3 553.7 257.2 551.8C300 550 343 545 385.8 542.3C428.7 539.7 471.3 539.3 514.2 537.2C557 535 600 531 642.8 532.7C685.7 534.3 728.3 541.7 771.2 547.5C814 553.3 857 557.7 878.5 559.8L900 562L900 601L878.5 601C857 601 814 601 771.2 601C728.3 601 685.7 601 642.8 601C600 601 557 601 514.2 601C471.3 601 428.7 601 385.8 601C343 601 300 601 257.2 601C214.3 601 171.7 601 128.8 601C86 601 43 601 21.5 601L0 601Z" fill="#f96d00"></path></svg>