<svg id="visual" viewBox="0 0 900 200" width="900" height="200" xmlns="http://www.w3.org/2000/svg" xmlns:xlink="http://www.w3.org/1999/xlink" version="1.1"><path d="M0 146L21.5 143.3C43 140.7 86 135.3 128.8 130.8C171.7 126.3 214.3 122.7 257.2 121.2C300 119.7 343 120.3 385.8 121.8C428.7 123.3 471.3 125.7 514.2 129C557 132.3 600 136.7 642.8 140C685.7 143.3 728.3 145.7 771.2 141.5C814 137.3 857 126.7 878.5 121.3L900 116L900 201L878.5 201C857 201 814 201 771.2 201C728.3 201 685.7 201 642.8 201C600 201 557 201 514.2 201C471.3 201 428.7 201 385.8 201C343 201 300 201 257.2 201C214.3 201 171.7 201 128.8 201C86 201 43 201 21.5 201L0 201Z" fill="#c62368"></path><path d="M0 137L21.5 138.7C43 140.3 86 143.7 128.8 146.8C171.7 150 214.3 153 257.2 151.8C300 150.7 343 145.3 385.8 144.8C428.7 144.3 471.3 148.7 514.2 148.5C557 148.3 600 143.7 642.8 142.8C685.7 142 728.3 145 771.2 144.3C814 143.7 857 139.3 878.5 137.2L900 135L900 201L878.5 201C857 201 814 201 771.2 201C728.3 201 685.7 201 642.8 201C600 201 557 201 514.2 201C471.3 201 428.7 201 385.8 201C343 201 300 201 257.2 201C214.3 201 171.7 201 128.8 201C86 201 43 201 21.5 201L0 201Z" fill="#dc2b59"></path><path d="M0 152L21.5 154.2C43 156.3 86 160.7 128.8 162.5C171.7 164.3 214.3 163.7 257.2 160.8C300 158 343 153 385.8 150C428.7 147 471.3 146 514.2 148.5C557 151 600 157 642.8 158.8C685.7 160.7 728.3 158.3 771.2 155.3C814 152.3 857 148.7 878.5 146.8L900 145L900 201L878.5 201C857 201 814 201 771.2 201C728.3 201 685.7 201 642.8 201C600 201 557 201 514.2 201C471.3 201 428.7 201 385.8 201C343 201 300 201 257.2 201C214.3 201 171.7 201 128.8 201C86 201 43 201 21.5 201L0 201Z" fill="#ec3c46"></path><path d="M0 166L21.5 167.2C43 168.3 86 170.7 128.8 171C171.7 171.3 214.3 169.7 257.2 167.8C300 166 343 164 385.8 163C428.7 162 471.3 162 514.2 164.3C557 166.7 600 171.3 642.8 173.8C685.7 176.3 728.3 176.7 771.2 176.2C814 175.7 857 174.3 878.5 173.7L900 173L900 201L878.5 201C857 201 814 201 771.2 201C728.3 201 685.7 201 642.8 201C600 201 557 201 514.2 201C471.3 201 428.7 201 385.8 201C343 201 300 201 257.2 201C214.3 201 171.7 201 128.8 201C86 201 43 201 21.5 201L0 201Z" fill="#f6532e"></path><path d="M0 183L21.5 184C43 185 86 187 128.8 188.2C171.7 189.3 214.3 189.7 257.2 187.5C300 185.3 343 180.7 385.8 180.2C428.7 179.7 471.3 183.3 514.2 183.7C557 184 600 181 642.8 180.8C685.7 180.7 728.3 183.3 771.2 184.2C814 185 857 184 878.5 183.5L900 183L900 201L878.5 201C857 201 814 201 771.2 201C728.3 201 685.7 201 642.8 201C600 201 557 201 514.2 201C471.3 201 428.7 201 385.8 201C343 201 300 201 257.2 201C214.3 201 171.7 201 128.8 201C86 201 43 201 21.5 201L0 201Z" fill="#f96d00"></path></svg>