<svg id="visual" viewBox="0 0 900 600" width="900" height="600" xmlns="http://www.w3.org/2000/svg" xmlns:xlink="http://www.w3.org/1999/xlink" version="1.1"><g stroke-width="1" stroke-linejoin="bevel"><path d="M405 277L374 239L304 312Z" fill="#222831" stroke="#222831"></path><path d="M304 312L385 364L405 277Z" fill="#393e46" stroke="#393e46"></path><path d="M304 312L315 394L385 364Z" fill="#343a42" stroke="#343a42"></path><path d="M374 239L294 186L304 312Z" fill="#373c44" stroke="#373c44"></path><path d="M495 375L493 332L385 364Z" fill="#32373f" stroke="#32373f"></path><path d="M385 364L493 332L405 277Z" fill="#2d333b" stroke="#2d333b"></path><path d="M405 277L478 164L374 239Z" fill="#343a42" stroke="#343a42"></path><path d="M388 480L495 375L385 364Z" fill="#2d333b" stroke="#2d333b"></path><path d="M160 291L219 394L304 312Z" fill="#32373f" stroke="#32373f"></path><path d="M304 312L219 394L315 394Z" fill="#393e46" stroke="#393e46"></path><path d="M493 332L478 164L405 277Z" fill="#2d333b" stroke="#2d333b"></path><path d="M374 239L415 80L294 186Z" fill="#242a33" stroke="#242a33"></path><path d="M294 186L187 200L304 312Z" fill="#393e46" stroke="#393e46"></path><path d="M187 200L160 291L304 312Z" fill="#2b3139" stroke="#2b3139"></path><path d="M292 496L388 480L315 394Z" fill="#2b3139" stroke="#2b3139"></path><path d="M315 394L388 480L385 364Z" fill="#2b3139" stroke="#2b3139"></path><path d="M219 394L292 496L315 394Z" fill="#2f353d" stroke="#2f353d"></path><path d="M478 164L415 80L374 239Z" fill="#373c44" stroke="#373c44"></path><path d="M294 186L198 76L187 200Z" fill="#32373f" stroke="#32373f"></path><path d="M415 80L320 60L294 186Z" fill="#222831" stroke="#222831"></path><path d="M495 375L596 268L493 332Z" fill="#32373f" stroke="#32373f"></path><path d="M493 332L585 199L478 164Z" fill="#2b3139" stroke="#2b3139"></path><path d="M478 164L531 108L415 80Z" fill="#2d333b" stroke="#2d333b"></path><path d="M596 268L585 199L493 332Z" fill="#292f37" stroke="#292f37"></path><path d="M388 480L495 498L495 375Z" fill="#242a33" stroke="#242a33"></path><path d="M495 375L567 436L596 268Z" fill="#222831" stroke="#222831"></path><path d="M476 600L495 498L388 480Z" fill="#373c44" stroke="#373c44"></path><path d="M585 199L531 108L478 164Z" fill="#343a42" stroke="#343a42"></path><path d="M495 498L567 436L495 375Z" fill="#32373f" stroke="#32373f"></path><path d="M320 60L198 76L294 186Z" fill="#2d333b" stroke="#2d333b"></path><path d="M64 307L95 408L160 291Z" fill="#32373f" stroke="#32373f"></path><path d="M160 291L95 408L219 394Z" fill="#292f37" stroke="#292f37"></path><path d="M219 394L163 530L292 496Z" fill="#292f37" stroke="#292f37"></path><path d="M64 307L160 291L64 186Z" fill="#262c35" stroke="#262c35"></path><path d="M522 0L367 0L415 80Z" fill="#2b3139" stroke="#2b3139"></path><path d="M415 80L367 0L320 60Z" fill="#2f353d" stroke="#2f353d"></path><path d="M320 60L283 0L198 76Z" fill="#393e46" stroke="#393e46"></path><path d="M64 186L160 291L187 200Z" fill="#343a42" stroke="#343a42"></path><path d="M367 0L283 0L320 60Z" fill="#343a42" stroke="#343a42"></path><path d="M110 76L187 200L198 76Z" fill="#222831" stroke="#222831"></path><path d="M110 76L64 186L187 200Z" fill="#262c35" stroke="#262c35"></path><path d="M89 475L163 530L219 394Z" fill="#2d333b" stroke="#2d333b"></path><path d="M292 496L388 600L388 480Z" fill="#2b3139" stroke="#2b3139"></path><path d="M265 600L388 600L292 496Z" fill="#2f353d" stroke="#2f353d"></path><path d="M495 498L613 484L567 436Z" fill="#393e46" stroke="#393e46"></path><path d="M178 0L110 76L198 76Z" fill="#393e46" stroke="#393e46"></path><path d="M0 478L89 475L95 408Z" fill="#32373f" stroke="#32373f"></path><path d="M95 408L89 475L219 394Z" fill="#32373f" stroke="#32373f"></path><path d="M239 600L265 600L292 496Z" fill="#2b3139" stroke="#2b3139"></path><path d="M622 600L613 484L495 498Z" fill="#262c35" stroke="#262c35"></path><path d="M710 413L723 316L596 268Z" fill="#262c35" stroke="#262c35"></path><path d="M585 199L628 109L531 108Z" fill="#2b3139" stroke="#2b3139"></path><path d="M531 108L522 0L415 80Z" fill="#373c44" stroke="#373c44"></path><path d="M676 139L628 109L585 199Z" fill="#2b3139" stroke="#2b3139"></path><path d="M676 139L585 199L706 195Z" fill="#2f353d" stroke="#2f353d"></path><path d="M82 600L239 600L163 530Z" fill="#242a33" stroke="#242a33"></path><path d="M163 530L239 600L292 496Z" fill="#32373f" stroke="#32373f"></path><path d="M571 0L522 0L531 108Z" fill="#373c44" stroke="#373c44"></path><path d="M388 600L476 600L388 480Z" fill="#2d333b" stroke="#2d333b"></path><path d="M283 0L178 0L198 76Z" fill="#2b3139" stroke="#2b3139"></path><path d="M0 197L0 262L64 186Z" fill="#32373f" stroke="#32373f"></path><path d="M64 186L0 262L64 307Z" fill="#292f37" stroke="#292f37"></path><path d="M64 307L0 364L95 408Z" fill="#343a42" stroke="#343a42"></path><path d="M706 195L585 199L596 268Z" fill="#2d333b" stroke="#2d333b"></path><path d="M628 109L571 0L531 108Z" fill="#2b3139" stroke="#2b3139"></path><path d="M0 262L0 364L64 307Z" fill="#262c35" stroke="#262c35"></path><path d="M701 0L571 0L628 109Z" fill="#262c35" stroke="#262c35"></path><path d="M0 70L0 197L64 186Z" fill="#292f37" stroke="#292f37"></path><path d="M0 70L64 186L110 76Z" fill="#2f353d" stroke="#2f353d"></path><path d="M723 316L706 195L596 268Z" fill="#32373f" stroke="#32373f"></path><path d="M710 413L596 268L567 436Z" fill="#292f37" stroke="#292f37"></path><path d="M729 502L710 413L613 484Z" fill="#393e46" stroke="#393e46"></path><path d="M613 484L710 413L567 436Z" fill="#2b3139" stroke="#2b3139"></path><path d="M0 364L0 478L95 408Z" fill="#262c35" stroke="#262c35"></path><path d="M89 475L82 600L163 530Z" fill="#292f37" stroke="#292f37"></path><path d="M178 0L70 0L110 76Z" fill="#262c35" stroke="#262c35"></path><path d="M476 600L622 600L495 498Z" fill="#222831" stroke="#222831"></path><path d="M0 478L82 600L89 475Z" fill="#262c35" stroke="#262c35"></path><path d="M70 0L0 70L110 76Z" fill="#393e46" stroke="#393e46"></path><path d="M810 378L779 291L723 316Z" fill="#2d333b" stroke="#2d333b"></path><path d="M723 316L779 291L706 195Z" fill="#2b3139" stroke="#2b3139"></path><path d="M706 195L778 79L676 139Z" fill="#262c35" stroke="#262c35"></path><path d="M810 378L723 316L710 413Z" fill="#2d333b" stroke="#2d333b"></path><path d="M661 600L729 502L613 484Z" fill="#32373f" stroke="#32373f"></path><path d="M779 291L784 222L706 195Z" fill="#393e46" stroke="#393e46"></path><path d="M676 139L701 0L628 109Z" fill="#292f37" stroke="#292f37"></path><path d="M622 600L661 600L613 484Z" fill="#2b3139" stroke="#2b3139"></path><path d="M778 79L701 0L676 139Z" fill="#393e46" stroke="#393e46"></path><path d="M70 0L0 0L0 70Z" fill="#292f37" stroke="#292f37"></path><path d="M779 291L900 311L784 222Z" fill="#343a42" stroke="#343a42"></path><path d="M828 489L810 378L710 413Z" fill="#2b3139" stroke="#2b3139"></path><path d="M0 478L0 600L82 600Z" fill="#262c35" stroke="#262c35"></path><path d="M784 222L778 79L706 195Z" fill="#343a42" stroke="#343a42"></path><path d="M900 166L778 79L784 222Z" fill="#2d333b" stroke="#2d333b"></path><path d="M900 0L777 0L778 79Z" fill="#343a42" stroke="#343a42"></path><path d="M778 79L777 0L701 0Z" fill="#373c44" stroke="#373c44"></path><path d="M786 600L828 489L729 502Z" fill="#222831" stroke="#222831"></path><path d="M729 502L828 489L710 413Z" fill="#2f353d" stroke="#2f353d"></path><path d="M810 378L900 311L779 291Z" fill="#242a33" stroke="#242a33"></path><path d="M661 600L786 600L729 502Z" fill="#242a33" stroke="#242a33"></path><path d="M900 429L810 378L828 489Z" fill="#2b3139" stroke="#2b3139"></path><path d="M900 429L900 311L810 378Z" fill="#343a42" stroke="#343a42"></path><path d="M900 311L900 166L784 222Z" fill="#32373f" stroke="#32373f"></path><path d="M900 536L900 429L828 489Z" fill="#262c35" stroke="#262c35"></path><path d="M900 166L900 92L778 79Z" fill="#2f353d" stroke="#2f353d"></path><path d="M786 600L900 536L828 489Z" fill="#2f353d" stroke="#2f353d"></path><path d="M900 92L900 0L778 79Z" fill="#2f353d" stroke="#2f353d"></path><path d="M786 600L900 600L900 536Z" fill="#2b3139" stroke="#2b3139"></path></g></svg>