<svg id="visual" viewBox="0 0 1200 300" width="1200" height="300" xmlns="http://www.w3.org/2000/svg" xmlns:xlink="http://www.w3.org/1999/xlink" version="1.1"><path d="M0 200L28.5 201.8C57 203.7 114 207.3 171.2 210.3C228.3 213.3 285.7 215.7 342.8 214.2C400 212.7 457 207.3 514.2 207.8C571.3 208.3 628.7 214.7 685.8 216.7C743 218.7 800 216.3 857.2 213.2C914.3 210 971.7 206 1028.8 201.3C1086 196.7 1143 191.3 1171.5 188.7L1200 186L1200 301L1171.5 301C1143 301 1086 301 1028.8 301C971.7 301 914.3 301 857.2 301C800 301 743 301 685.8 301C628.7 301 571.3 301 514.2 301C457 301 400 301 342.8 301C285.7 301 228.3 301 171.2 301C114 301 57 301 28.5 301L0 301Z" fill="#c62368"></path><path d="M0 204L28.5 203.2C57 202.3 114 200.7 171.2 200.7C228.3 200.7 285.7 202.3 342.8 203.7C400 205 457 206 514.2 206.3C571.3 206.7 628.7 206.3 685.8 206.2C743 206 800 206 857.2 208.7C914.3 211.3 971.7 216.7 1028.8 221.5C1086 226.3 1143 230.7 1171.5 232.8L1200 235L1200 301L1171.5 301C1143 301 1086 301 1028.8 301C971.7 301 914.3 301 857.2 301C800 301 743 301 685.8 301C628.7 301 571.3 301 514.2 301C457 301 400 301 342.8 301C285.7 301 228.3 301 171.2 301C114 301 57 301 28.5 301L0 301Z" fill="#dc2b59"></path><path d="M0 222L28.5 224.5C57 227 114 232 171.2 233.8C228.3 235.7 285.7 234.3 342.8 236.7C400 239 457 245 514.2 242.5C571.3 240 628.7 229 685.8 227.5C743 226 800 234 857.2 237C914.3 240 971.7 238 1028.8 239C1086 240 1143 244 1171.5 246L1200 248L1200 301L1171.5 301C1143 301 1086 301 1028.8 301C971.7 301 914.3 301 857.2 301C800 301 743 301 685.8 301C628.7 301 571.3 301 514.2 301C457 301 400 301 342.8 301C285.7 301 228.3 301 171.2 301C114 301 57 301 28.5 301L0 301Z" fill="#ec3c46"></path><path d="M0 253L28.5 252C57 251 114 249 171.2 247.3C228.3 245.7 285.7 244.3 342.8 244C400 243.7 457 244.3 514.2 245.3C571.3 246.3 628.7 247.7 685.8 247.3C743 247 800 245 857.2 246.5C914.3 248 971.7 253 1028.8 254.8C1086 256.7 1143 255.3 1171.5 254.7L1200 254L1200 301L1171.5 301C1143 301 1086 301 1028.8 301C971.7 301 914.3 301 857.2 301C800 301 743 301 685.8 301C628.7 301 571.3 301 514.2 301C457 301 400 301 342.8 301C285.7 301 228.3 301 171.2 301C114 301 57 301 28.5 301L0 301Z" fill="#f6532e"></path><path d="M0 268L28.5 269.2C57 270.3 114 272.7 171.2 274.2C228.3 275.7 285.7 276.3 342.8 275.3C400 274.3 457 271.7 514.2 270.3C571.3 269 628.7 269 685.8 268C743 267 800 265 857.2 265.8C914.3 266.7 971.7 270.3 1028.8 273.3C1086 276.3 1143 278.7 1171.5 279.8L1200 281L1200 301L1171.5 301C1143 301 1086 301 1028.8 301C971.7 301 914.3 301 857.2 301C800 301 743 301 685.8 301C628.7 301 571.3 301 514.2 301C457 301 400 301 342.8 301C285.7 301 228.3 301 171.2 301C114 301 57 301 28.5 301L0 301Z" fill="#f96d00"></path></svg>