<svg id="visual" viewBox="0 0 960 540" width="960" height="540" xmlns="http://www.w3.org/2000/svg" xmlns:xlink="http://www.w3.org/1999/xlink" version="1.1"><path d="M0 361L22.8 364.2C45.7 367.3 91.3 373.7 137 378.8C182.7 384 228.3 388 274 385.5C319.7 383 365.3 374 411.2 375.2C457 376.3 503 387.7 548.8 391.2C594.7 394.7 640.3 390.3 686 384.5C731.7 378.7 777.3 371.3 823 362.8C868.7 354.3 914.3 344.7 937.2 339.8L960 335L960 541L937.2 541C914.3 541 868.7 541 823 541C777.3 541 731.7 541 686 541C640.3 541 594.7 541 548.8 541C503 541 457 541 411.2 541C365.3 541 319.7 541 274 541C228.3 541 182.7 541 137 541C91.3 541 45.7 541 22.8 541L0 541Z" fill="#c62368"></path><path d="M0 368L22.8 366.5C45.7 365 91.3 362 137 362.2C182.7 362.3 228.3 365.7 274 368C319.7 370.3 365.3 371.7 411.2 372C457 372.3 503 371.7 548.8 371.5C594.7 371.3 640.3 371.7 686 376.5C731.7 381.3 777.3 390.7 823 399.2C868.7 407.7 914.3 415.3 937.2 419.2L960 423L960 541L937.2 541C914.3 541 868.7 541 823 541C777.3 541 731.7 541 686 541C640.3 541 594.7 541 548.8 541C503 541 457 541 411.2 541C365.3 541 319.7 541 274 541C228.3 541 182.7 541 137 541C91.3 541 45.7 541 22.8 541L0 541Z" fill="#dc2b59"></path><path d="M0 401L22.8 405.3C45.7 409.7 91.3 418.3 137 421.5C182.7 424.7 228.3 422.3 274 426.7C319.7 431 365.3 442 411.2 437.5C457 433 503 413 548.8 410.3C594.7 407.7 640.3 422.3 686 427.8C731.7 433.3 777.3 429.7 823 431.3C868.7 433 914.3 440 937.2 443.5L960 447L960 541L937.2 541C914.3 541 868.7 541 823 541C777.3 541 731.7 541 686 541C640.3 541 594.7 541 548.8 541C503 541 457 541 411.2 541C365.3 541 319.7 541 274 541C228.3 541 182.7 541 137 541C91.3 541 45.7 541 22.8 541L0 541Z" fill="#ec3c46"></path><path d="M0 456L22.8 454.2C45.7 452.3 91.3 448.7 137 445.8C182.7 443 228.3 441 274 440.3C319.7 439.7 365.3 440.3 411.2 442C457 443.7 503 446.3 548.8 445.8C594.7 445.3 640.3 441.7 686 444.3C731.7 447 777.3 456 823 459.3C868.7 462.7 914.3 460.3 937.2 459.2L960 458L960 541L937.2 541C914.3 541 868.7 541 823 541C777.3 541 731.7 541 686 541C640.3 541 594.7 541 548.8 541C503 541 457 541 411.2 541C365.3 541 319.7 541 274 541C228.3 541 182.7 541 137 541C91.3 541 45.7 541 22.8 541L0 541Z" fill="#f6532e"></path><path d="M0 484L22.8 486C45.7 488 91.3 492 137 494.5C182.7 497 228.3 498 274 496.3C319.7 494.7 365.3 490.3 411.2 488C457 485.7 503 485.3 548.8 483.5C594.7 481.7 640.3 478.3 686 479.8C731.7 481.3 777.3 487.7 823 492.8C868.7 498 914.3 502 937.2 504L960 506L960 541L937.2 541C914.3 541 868.7 541 823 541C777.3 541 731.7 541 686 541C640.3 541 594.7 541 548.8 541C503 541 457 541 411.2 541C365.3 541 319.7 541 274 541C228.3 541 182.7 541 137 541C91.3 541 45.7 541 22.8 541L0 541Z" fill="#f96d00"></path></svg>